<?xml version="1.0" encoding="UTF-8"?>
<svg id="Layer_2" data-name="Layer 2" xmlns="http://www.w3.org/2000/svg" xmlns:xlink="http://www.w3.org/1999/xlink" viewBox="0 0 91.53 41.69">
  <defs>
    <style>
      .cls-1 {
        fill: url(#linear-gradient);
        stroke-width: 0px;
      }
    </style>
    <linearGradient id="linear-gradient" x1="0" y1="20.84" x2="91.53" y2="20.84" gradientUnits="userSpaceOnUse">
      <stop offset="0" stop-color="#2f499f"/>
      <stop offset="0" stop-color="#2f499f"/>
      <stop offset="1" stop-color="#f0567f"/>
    </linearGradient>
  </defs>
  <g id="Layer_1-2" data-name="Layer 1">
    <g>
      <path class="cls-1" d="m39.16,14.5c-.05-.06-.35-.46-.73-1.03-.84-1.25-1-1.72-1.07-2.04-.07-.3-.18-.77-.03-1.28.05-.17.08-.19.1-.32.09-.55-.4-1.06-.59-1.27-1.04-1.13-.66-1.13-1.89-2.42-1.07-1.13-2.34-2.08-3.81-2.83-1.47-.75-3.18-1.26-5.14-1.54-1.96-.27-4.1-.41-6.4-.41-1.7,0-3.72.03-6.05.09-2.33.06-4.21.09-5.64.09-1.91,0-3.96-.02-6.12-.06,0,2.36-.01,3.82-.03,4.37l-.38,12.69-.58,12.74-.79,10.2c3.11-.04,4.97-.06,5.6-.06l9.96.06c3.55,0,6.73-.28,9.54-.85,2.8-.57,5.36-1.84,7.66-3.82.47-.4.89-.84,1.31-1.28-.53-.56-1.05-.77-1.36-.85-1.4-.39-3.09.41-4.22,2.01-.48-1.85-.97-3.71-1.45-5.56,0,0-.73.77-1.15,1.13-1.1.96-2.2,1.63-3.3,2.01-1.09.38-2.4.66-3.91.83-1.51.18-3.16.26-4.94.26-1.56,0-3.15-.04-4.75-.12l1.21-27.66c2.85-.08,5.38-.12,7.59-.12,4.08,0,6.11.38,7.54,1.25,4.35,2.62,4.48,8.79,7.25,8.77.55,0,.45-.24,1.22-.31,2.78-.24,5.78,2.74,5.85,2.66.02-.02.03-.05.03-.05.01-.03.02-.06.02-.1,0-2.99.11-4.29-.54-5.17Z"/>
      <path class="cls-1" d="m27.66,39.91c-.09-1.34-.18-2.69-.27-4.04-.11-1.6-.23-3.19-.36-4.77.6.63,1.43,1.39,2.54,2.09,1.28.82,2.42,1.23,2.95,1.41.01,0,.08.03.15.05,2.19.69,4.4.62,4.8.6,1.16-.05,2.2-.11,3.5-.57,1.08-.38,1.88-.92,2.4-1.61.52-.69.78-1.47.78-2.33,0-.66-.12-1.26-.37-1.79-.37-.72-1-1.47-1.87-2.26-1.12-1.07-3.11-2.84-5.98-5.3-1.37-1.19-2.31-2.04-2.83-2.55-1.92-1.88-2.4-2.51-2.7-3-.67-1.11-.98-2.12-1.28-3.08-.43-1.39-.47-2.13-.48-2.38-.03-.9.12-1.57.21-2.01.24-1.1.68-2.15,1.32-3.16,1.03-1.61,2.56-2.87,4.6-3.78,2.04-.91,4.61-1.36,7.72-1.36,2.79,0,5.94.34,9.43,1.03.1,2.03.29,4.36.59,6.97-3.04-1.17-5.85-1.76-8.42-1.76-1.91,0-3.48.44-4.69,1.3-1.22.87-1.83,1.88-1.83,3.03,0,.31.04.64.13.98.08.34.21.67.38,1,.17.32.47.74.91,1.26.44.52,1.07,1.12,1.91,1.82.84.69,1.56,1.26,2.15,1.68l3.61,3.28c.92.76,1.74,1.5,2.46,2.23.72.72,1.34,1.42,1.86,2.08.52.66.92,1.3,1.21,1.9.29.61.51,1.23.66,1.86.15.63.22,1.3.22,2.01,0,1.64-.38,3.19-1.14,4.64-.76,1.46-1.86,2.65-3.28,3.59-1.43.94-2.99,1.59-4.69,1.95s-3.5.54-5.39.54c-1.25,0-2.71-.11-4.37-.32-1.66-.22-3.85-.62-6.56-1.23Z"/>
      <path class="cls-1" d="m63.43,34.61c-4.31.6-7.5-2.48-8.23-3.19-.24-.23-1.35-1.3-2.24-3.06-1.44-2.84-1.46-5.47-1.46-6.83,0-2.13.4-4.17,1.19-6.14s1.92-3.64,3.4-5.02c1.47-1.39,3.17-2.4,5.1-3.03,1.92-.63,3.93-.95,6.02-.95,1.08,0,2.21.09,3.38.23V.23c-1.53-.14-3.02-.23-4.44-.23-3.2,0-6.28.46-9.23,1.39-2.95.93-5.5,2.34-7.66,4.23-2.16,1.89-3.81,4.22-4.97,6.97-.49,1.18-1.81,4.53-1.73,8.99.05,2.96.69,5.04,1.62,8.13.35,1.15.66,1.97,1.19,2.88,1.02,1.75,2.27,2.85,3.27,3.68,2.14,1.77,4.54,3.06,7.21,3.88s5.46,1.23,8.39,1.23c1.33,0,2.92-.08,4.78-.23.51-.04,1.03-.1,1.56-.16-.63-3.07-1.26-6.13-1.89-9.2-.74.78-2.55,2.43-5.26,2.81Z"/>
      <line class="cls-1" x1="35.41" y1="35.29" x2="29.86" y2="36.14"/>
      <path class="cls-1" d="m66.1,40.13c-.83-2.06-.56-3.35-.27-4.04.13-.31.27-.54,1.67-2.56.48-.7.89-1.29,1.19-1.73.26.44.69,1.05,1.34,1.65,0,0,2.2,1.98,5.88,2.02,1.23.01,2.34-.24,2.5-.28.32-.07.65-.17,1-.29,1.08-.38,1.88-.92,2.4-1.61.52-.69.78-1.47.78-2.33,0-.66-.12-1.26-.37-1.79-.37-.72-1-1.47-1.87-2.26-1.12-1.07-3.11-2.84-5.98-5.3-1.37-1.19-2.31-2.04-2.83-2.55-1.17-1.11-2.07-2.11-2.7-3-.63-.89-1.07-1.77-1.35-2.65-.27-.88-.41-1.82-.41-2.81,0-1.84.51-3.56,1.54-5.17s2.56-2.87,4.6-3.78c2.04-.91,4.61-1.36,7.72-1.36,2.79,0,5.94.34,9.43,1.03.1,2.03.29,4.36.59,6.97-3.04-1.17-5.85-1.76-8.42-1.76-1.91,0-3.48.44-4.69,1.3-1.22.87-1.83,1.88-1.83,3.03,0,.31.04.64.13.98.08.34.21.67.38,1,.17.32.47.74.91,1.26.44.52,1.07,1.12,1.91,1.82.84.69,1.56,1.26,2.15,1.68l3.61,3.28c.92.76,1.74,1.5,2.46,2.23.72.72,1.34,1.42,1.86,2.08.52.66.92,1.3,1.21,1.9.29.61.51,1.23.66,1.86.15.63.22,1.3.22,2.01,0,1.64-.38,3.19-1.14,4.64-.76,1.46-1.86,2.65-3.28,3.59-1.43.94-2.99,1.59-4.69,1.95s-3.5.54-5.39.54c-1.25,0-2.71-.11-4.37-.32-1.66-.22-3.85-.62-6.56-1.23Z"/>
      <polyline class="cls-1" points="75.34 .92 70.55 .23 70.55 3.27"/>
    </g>
  </g>
</svg>